<mxfile host="app.diagrams.net" modified="2021-01-01T18:50:26.712Z" agent="5.0 (X11)" etag="QZddUq6M4v95qmXZHjbm" version="14.1.7" type="github" pages="2">
  <diagram id="9TmfmCz-h732q6O2XP1U" name="Page-1">
    <mxGraphModel dx="1258" dy="733" grid="1" gridSize="10" guides="1" tooltips="1" connect="1" arrows="1" fold="1" page="1" pageScale="1" pageWidth="850" pageHeight="1100" background="#CCFFE6" math="0" shadow="0">
      <root>
        <mxCell id="0" />
        <mxCell id="1" parent="0" />
        <mxCell id="yx9G2MlZ8vXQoHSZa9hz-1" value="Authorization service" style="rounded=0;whiteSpace=wrap;html=1;" vertex="1" parent="1">
          <mxGeometry x="400" y="160" width="200" height="60" as="geometry" />
        </mxCell>
        <mxCell id="yx9G2MlZ8vXQoHSZa9hz-2" value="Settlement" style="rounded=0;whiteSpace=wrap;html=1;" vertex="1" parent="1">
          <mxGeometry x="400" y="300" width="200" height="60" as="geometry" />
        </mxCell>
        <mxCell id="yx9G2MlZ8vXQoHSZa9hz-3" value="Callback service " style="rounded=0;whiteSpace=wrap;html=1;" vertex="1" parent="1">
          <mxGeometry x="440" y="430" width="200" height="60" as="geometry" />
        </mxCell>
        <mxCell id="yx9G2MlZ8vXQoHSZa9hz-4" value="Melli Bank Service" style="rounded=0;whiteSpace=wrap;html=1;" vertex="1" parent="1">
          <mxGeometry x="880" y="260" width="170" height="60" as="geometry" />
        </mxCell>
        <mxCell id="yx9G2MlZ8vXQoHSZa9hz-5" value="Mellat Bank Service" style="rounded=0;whiteSpace=wrap;html=1;" vertex="1" parent="1">
          <mxGeometry x="880" y="340" width="170" height="60" as="geometry" />
        </mxCell>
        <mxCell id="yx9G2MlZ8vXQoHSZa9hz-6" value="Sepah Bank Service" style="rounded=0;whiteSpace=wrap;html=1;" vertex="1" parent="1">
          <mxGeometry x="880" y="440" width="170" height="60" as="geometry" />
        </mxCell>
        <mxCell id="yx9G2MlZ8vXQoHSZa9hz-7" value="wallet" style="rounded=0;whiteSpace=wrap;html=1;" vertex="1" parent="1">
          <mxGeometry x="720" y="200" width="80" height="40" as="geometry" />
        </mxCell>
        <mxCell id="yx9G2MlZ8vXQoHSZa9hz-8" value="UUID Reserve Service" style="rounded=0;whiteSpace=wrap;html=1;" vertex="1" parent="1">
          <mxGeometry x="620" y="70" width="220" height="60" as="geometry" />
        </mxCell>
        <mxCell id="yx9G2MlZ8vXQoHSZa9hz-9" value="Archive Database" style="rhombus;whiteSpace=wrap;html=1;" vertex="1" parent="1">
          <mxGeometry x="380" y="560" width="220" height="90" as="geometry" />
        </mxCell>
        <mxCell id="yx9G2MlZ8vXQoHSZa9hz-10" value="User1" style="ellipse;whiteSpace=wrap;html=1;" vertex="1" parent="1">
          <mxGeometry x="90" y="140" width="120" height="80" as="geometry" />
        </mxCell>
        <mxCell id="yx9G2MlZ8vXQoHSZa9hz-11" value="User2" style="ellipse;whiteSpace=wrap;html=1;" vertex="1" parent="1">
          <mxGeometry x="90" y="280" width="120" height="80" as="geometry" />
        </mxCell>
        <mxCell id="yx9G2MlZ8vXQoHSZa9hz-12" value="User n" style="ellipse;whiteSpace=wrap;html=1;" vertex="1" parent="1">
          <mxGeometry x="90" y="440" width="120" height="80" as="geometry" />
        </mxCell>
        <mxCell id="yx9G2MlZ8vXQoHSZa9hz-17" value="" style="endArrow=none;dashed=1;html=1;dashPattern=1 3;strokeWidth=2;" edge="1" parent="1">
          <mxGeometry width="50" height="50" relative="1" as="geometry">
            <mxPoint x="250" y="650" as="sourcePoint" />
            <mxPoint x="250" y="20" as="targetPoint" />
          </mxGeometry>
        </mxCell>
        <mxCell id="yx9G2MlZ8vXQoHSZa9hz-18" value="" style="curved=1;endArrow=classic;html=1;entryX=0;entryY=0.5;entryDx=0;entryDy=0;" edge="1" parent="1" source="yx9G2MlZ8vXQoHSZa9hz-9" target="yx9G2MlZ8vXQoHSZa9hz-2">
          <mxGeometry width="50" height="50" relative="1" as="geometry">
            <mxPoint x="280" y="575" as="sourcePoint" />
            <mxPoint x="330" y="525" as="targetPoint" />
            <Array as="points">
              <mxPoint x="340" y="560" />
              <mxPoint x="300" y="520" />
              <mxPoint x="320" y="430" />
              <mxPoint x="380" y="350" />
            </Array>
          </mxGeometry>
        </mxCell>
        <mxCell id="yx9G2MlZ8vXQoHSZa9hz-19" value="" style="curved=1;endArrow=classic;html=1;exitX=0.75;exitY=1;exitDx=0;exitDy=0;entryX=0.864;entryY=0.333;entryDx=0;entryDy=0;entryPerimeter=0;" edge="1" parent="1" source="yx9G2MlZ8vXQoHSZa9hz-3" target="yx9G2MlZ8vXQoHSZa9hz-9">
          <mxGeometry width="50" height="50" relative="1" as="geometry">
            <mxPoint x="670" y="580" as="sourcePoint" />
            <mxPoint x="720" y="530" as="targetPoint" />
            <Array as="points">
              <mxPoint x="640" y="560" />
            </Array>
          </mxGeometry>
        </mxCell>
        <mxCell id="yx9G2MlZ8vXQoHSZa9hz-20" value="" style="endArrow=classic;startArrow=classic;html=1;exitX=0.5;exitY=0;exitDx=0;exitDy=0;entryX=0.5;entryY=1;entryDx=0;entryDy=0;" edge="1" parent="1" source="yx9G2MlZ8vXQoHSZa9hz-3" target="yx9G2MlZ8vXQoHSZa9hz-2">
          <mxGeometry width="50" height="50" relative="1" as="geometry">
            <mxPoint x="500" y="410" as="sourcePoint" />
            <mxPoint x="550" y="360" as="targetPoint" />
            <Array as="points">
              <mxPoint x="520" y="390" />
            </Array>
          </mxGeometry>
        </mxCell>
        <mxCell id="yx9G2MlZ8vXQoHSZa9hz-21" value="" style="endArrow=classic;startArrow=classic;html=1;entryX=0.5;entryY=1;entryDx=0;entryDy=0;exitX=0.5;exitY=0;exitDx=0;exitDy=0;" edge="1" parent="1" source="yx9G2MlZ8vXQoHSZa9hz-2" target="yx9G2MlZ8vXQoHSZa9hz-1">
          <mxGeometry width="50" height="50" relative="1" as="geometry">
            <mxPoint x="470" y="300" as="sourcePoint" />
            <mxPoint x="520" y="250" as="targetPoint" />
          </mxGeometry>
        </mxCell>
        <mxCell id="yx9G2MlZ8vXQoHSZa9hz-23" value="" style="endArrow=classic;startArrow=classic;html=1;entryX=0;entryY=0.5;entryDx=0;entryDy=0;" edge="1" parent="1" target="yx9G2MlZ8vXQoHSZa9hz-1">
          <mxGeometry width="50" height="50" relative="1" as="geometry">
            <mxPoint x="260" y="330" as="sourcePoint" />
            <mxPoint x="350" y="200" as="targetPoint" />
          </mxGeometry>
        </mxCell>
        <mxCell id="yx9G2MlZ8vXQoHSZa9hz-24" value="" style="endArrow=classic;startArrow=classic;html=1;entryX=0;entryY=0.5;entryDx=0;entryDy=0;" edge="1" parent="1" target="yx9G2MlZ8vXQoHSZa9hz-2">
          <mxGeometry width="50" height="50" relative="1" as="geometry">
            <mxPoint x="260" y="340" as="sourcePoint" />
            <mxPoint x="340" y="310" as="targetPoint" />
          </mxGeometry>
        </mxCell>
        <mxCell id="yx9G2MlZ8vXQoHSZa9hz-25" value="" style="curved=1;endArrow=classic;html=1;entryX=0.75;entryY=0;entryDx=0;entryDy=0;exitX=0.4;exitY=1.033;exitDx=0;exitDy=0;exitPerimeter=0;" edge="1" parent="1" source="yx9G2MlZ8vXQoHSZa9hz-8" target="yx9G2MlZ8vXQoHSZa9hz-2">
          <mxGeometry width="50" height="50" relative="1" as="geometry">
            <mxPoint x="640" y="230" as="sourcePoint" />
            <mxPoint x="690" y="180" as="targetPoint" />
            <Array as="points">
              <mxPoint x="690" y="230" />
              <mxPoint x="640" y="180" />
            </Array>
          </mxGeometry>
        </mxCell>
        <mxCell id="yx9G2MlZ8vXQoHSZa9hz-26" value="" style="curved=1;endArrow=classic;html=1;entryX=1;entryY=0.5;entryDx=0;entryDy=0;exitX=0;exitY=0.75;exitDx=0;exitDy=0;" edge="1" parent="1" source="yx9G2MlZ8vXQoHSZa9hz-7" target="yx9G2MlZ8vXQoHSZa9hz-2">
          <mxGeometry width="50" height="50" relative="1" as="geometry">
            <mxPoint x="640" y="290" as="sourcePoint" />
            <mxPoint x="690" y="240" as="targetPoint" />
            <Array as="points">
              <mxPoint x="690" y="290" />
              <mxPoint x="640" y="240" />
            </Array>
          </mxGeometry>
        </mxCell>
        <mxCell id="yx9G2MlZ8vXQoHSZa9hz-27" value="" style="endArrow=classic;html=1;entryX=0;entryY=0.5;entryDx=0;entryDy=0;exitX=1;exitY=0.5;exitDx=0;exitDy=0;" edge="1" parent="1" source="yx9G2MlZ8vXQoHSZa9hz-2" target="yx9G2MlZ8vXQoHSZa9hz-4">
          <mxGeometry width="50" height="50" relative="1" as="geometry">
            <mxPoint x="680" y="350" as="sourcePoint" />
            <mxPoint x="730" y="300" as="targetPoint" />
          </mxGeometry>
        </mxCell>
        <mxCell id="yx9G2MlZ8vXQoHSZa9hz-28" value="" style="endArrow=classic;html=1;entryX=-0.005;entryY=0.65;entryDx=0;entryDy=0;exitX=1.005;exitY=0.633;exitDx=0;exitDy=0;entryPerimeter=0;exitPerimeter=0;" edge="1" parent="1" source="yx9G2MlZ8vXQoHSZa9hz-2" target="yx9G2MlZ8vXQoHSZa9hz-5">
          <mxGeometry width="50" height="50" relative="1" as="geometry">
            <mxPoint x="610" y="340" as="sourcePoint" />
            <mxPoint x="890" y="300" as="targetPoint" />
          </mxGeometry>
        </mxCell>
        <mxCell id="yx9G2MlZ8vXQoHSZa9hz-29" value="" style="endArrow=classic;html=1;entryX=0;entryY=0.5;entryDx=0;entryDy=0;exitX=1;exitY=0.75;exitDx=0;exitDy=0;" edge="1" parent="1" source="yx9G2MlZ8vXQoHSZa9hz-2" target="yx9G2MlZ8vXQoHSZa9hz-6">
          <mxGeometry width="50" height="50" relative="1" as="geometry">
            <mxPoint x="611" y="347.98" as="sourcePoint" />
            <mxPoint x="889" y="389" as="targetPoint" />
          </mxGeometry>
        </mxCell>
        <mxCell id="yx9G2MlZ8vXQoHSZa9hz-30" value="" style="endArrow=none;dashed=1;html=1;dashPattern=1 3;strokeWidth=2;" edge="1" parent="1">
          <mxGeometry width="50" height="50" relative="1" as="geometry">
            <mxPoint x="850" y="650" as="sourcePoint" />
            <mxPoint x="850" y="20" as="targetPoint" />
          </mxGeometry>
        </mxCell>
        <mxCell id="yx9G2MlZ8vXQoHSZa9hz-32" value="" style="endArrow=classic;html=1;entryX=1;entryY=0.5;entryDx=0;entryDy=0;" edge="1" parent="1" target="yx9G2MlZ8vXQoHSZa9hz-3">
          <mxGeometry width="50" height="50" relative="1" as="geometry">
            <mxPoint x="880" y="290" as="sourcePoint" />
            <mxPoint x="730" y="445" as="targetPoint" />
          </mxGeometry>
        </mxCell>
        <mxCell id="yx9G2MlZ8vXQoHSZa9hz-33" value="" style="endArrow=classic;html=1;entryX=1.006;entryY=0.636;entryDx=0;entryDy=0;exitX=0;exitY=0.75;exitDx=0;exitDy=0;entryPerimeter=0;" edge="1" parent="1" source="yx9G2MlZ8vXQoHSZa9hz-5" target="yx9G2MlZ8vXQoHSZa9hz-3">
          <mxGeometry width="50" height="50" relative="1" as="geometry">
            <mxPoint x="890" y="300.0000000000001" as="sourcePoint" />
            <mxPoint x="650" y="470" as="targetPoint" />
          </mxGeometry>
        </mxCell>
        <mxCell id="yx9G2MlZ8vXQoHSZa9hz-34" value="" style="endArrow=classic;html=1;entryX=1;entryY=0.75;entryDx=0;entryDy=0;exitX=0;exitY=0.75;exitDx=0;exitDy=0;" edge="1" parent="1" source="yx9G2MlZ8vXQoHSZa9hz-6" target="yx9G2MlZ8vXQoHSZa9hz-3">
          <mxGeometry width="50" height="50" relative="1" as="geometry">
            <mxPoint x="870" y="480" as="sourcePoint" />
            <mxPoint x="660" y="480" as="targetPoint" />
          </mxGeometry>
        </mxCell>
        <mxCell id="yx9G2MlZ8vXQoHSZa9hz-35" value="" style="endArrow=none;dashed=1;html=1;dashPattern=1 3;strokeWidth=2;" edge="1" parent="1">
          <mxGeometry width="50" height="50" relative="1" as="geometry">
            <mxPoint x="150" y="430" as="sourcePoint" />
            <mxPoint x="150" y="370" as="targetPoint" />
          </mxGeometry>
        </mxCell>
        <mxCell id="yx9G2MlZ8vXQoHSZa9hz-36" value="Toman Settlement Service" style="text;html=1;strokeColor=none;fillColor=none;align=center;verticalAlign=middle;whiteSpace=wrap;rounded=0;" vertex="1" parent="1">
          <mxGeometry y="60" width="230" height="20" as="geometry" />
        </mxCell>
      </root>
    </mxGraphModel>
  </diagram>
  <diagram id="h0JzYI3h6YQAq17BDTTy" name="Page-2">
    <mxGraphModel dx="2221" dy="1899" grid="1" gridSize="10" guides="1" tooltips="1" connect="1" arrows="1" fold="1" page="1" pageScale="1" pageWidth="850" pageHeight="1100" background="#CCFFE6" math="0" shadow="1">
      <root>
        <mxCell id="MW5D7cG7npsvMn2pO1Nx-0" />
        <mxCell id="MW5D7cG7npsvMn2pO1Nx-1" parent="MW5D7cG7npsvMn2pO1Nx-0" />
        <mxCell id="MW5D7cG7npsvMn2pO1Nx-2" value="Geting Queue" style="whiteSpace=wrap;html=1;aspect=fixed;" vertex="1" parent="MW5D7cG7npsvMn2pO1Nx-1">
          <mxGeometry x="40" y="240" width="100" height="100" as="geometry" />
        </mxCell>
        <mxCell id="MW5D7cG7npsvMn2pO1Nx-3" value="scheduler " style="ellipse;whiteSpace=wrap;html=1;" vertex="1" parent="MW5D7cG7npsvMn2pO1Nx-1">
          <mxGeometry x="180" y="240" width="120" height="80" as="geometry" />
        </mxCell>
        <mxCell id="MW5D7cG7npsvMn2pO1Nx-4" value="Workspace Queue " style="whiteSpace=wrap;html=1;aspect=fixed;" vertex="1" parent="MW5D7cG7npsvMn2pO1Nx-1">
          <mxGeometry x="370" y="240" width="80" height="80" as="geometry" />
        </mxCell>
        <mxCell id="MW5D7cG7npsvMn2pO1Nx-5" value="Worker #1" style="ellipse;whiteSpace=wrap;html=1;" vertex="1" parent="MW5D7cG7npsvMn2pO1Nx-1">
          <mxGeometry x="590" y="240" width="120" height="80" as="geometry" />
        </mxCell>
        <mxCell id="MW5D7cG7npsvMn2pO1Nx-6" value="Worker #n" style="ellipse;whiteSpace=wrap;html=1;" vertex="1" parent="MW5D7cG7npsvMn2pO1Nx-1">
          <mxGeometry x="600" y="380" width="120" height="80" as="geometry" />
        </mxCell>
        <mxCell id="MW5D7cG7npsvMn2pO1Nx-7" value="&lt;div&gt;bank verify&lt;/div&gt;&lt;div&gt;bank followup&lt;br&gt;&lt;/div&gt;" style="ellipse;whiteSpace=wrap;html=1;" vertex="1" parent="MW5D7cG7npsvMn2pO1Nx-1">
          <mxGeometry x="830" y="310" width="140" height="100" as="geometry" />
        </mxCell>
        <mxCell id="MW5D7cG7npsvMn2pO1Nx-8" value="bank login/token" style="ellipse;whiteSpace=wrap;html=1;" vertex="1" parent="MW5D7cG7npsvMn2pO1Nx-1">
          <mxGeometry x="950" y="130" width="120" height="80" as="geometry" />
        </mxCell>
        <mxCell id="MW5D7cG7npsvMn2pO1Nx-9" value="UUID Reserve Service" style="rounded=1;whiteSpace=wrap;html=1;" vertex="1" parent="MW5D7cG7npsvMn2pO1Nx-1">
          <mxGeometry x="300" y="30" width="120" height="60" as="geometry" />
        </mxCell>
        <mxCell id="MW5D7cG7npsvMn2pO1Nx-10" value="Circuit&amp;nbsp; Breaker " style="ellipse;whiteSpace=wrap;html=1;" vertex="1" parent="MW5D7cG7npsvMn2pO1Nx-1">
          <mxGeometry x="331" y="390" width="160" height="110" as="geometry" />
        </mxCell>
        <mxCell id="MW5D7cG7npsvMn2pO1Nx-11" value="&lt;font style=&quot;font-size: 18px&quot;&gt;Melli Bank Service&lt;/font&gt;" style="text;html=1;strokeColor=none;fillColor=none;align=center;verticalAlign=middle;whiteSpace=wrap;rounded=0;" vertex="1" parent="MW5D7cG7npsvMn2pO1Nx-1">
          <mxGeometry x="90" y="30" width="180" height="20" as="geometry" />
        </mxCell>
        <mxCell id="MW5D7cG7npsvMn2pO1Nx-12" value="" style="endArrow=none;dashed=1;html=1;dashPattern=1 3;strokeWidth=2;entryX=0.5;entryY=1;entryDx=0;entryDy=0;" edge="1" parent="MW5D7cG7npsvMn2pO1Nx-1" target="MW5D7cG7npsvMn2pO1Nx-5">
          <mxGeometry width="50" height="50" relative="1" as="geometry">
            <mxPoint x="650" y="380" as="sourcePoint" />
            <mxPoint x="680" y="330" as="targetPoint" />
          </mxGeometry>
        </mxCell>
        <mxCell id="MW5D7cG7npsvMn2pO1Nx-13" value="" style="curved=1;endArrow=classic;html=1;" edge="1" parent="MW5D7cG7npsvMn2pO1Nx-1">
          <mxGeometry width="50" height="50" relative="1" as="geometry">
            <mxPoint x="-130" y="270" as="sourcePoint" />
            <mxPoint x="40" y="260" as="targetPoint" />
            <Array as="points">
              <mxPoint x="-80" y="260" />
              <mxPoint x="-10" y="260" />
            </Array>
          </mxGeometry>
        </mxCell>
        <mxCell id="MW5D7cG7npsvMn2pO1Nx-14" value="from settlement" style="text;html=1;strokeColor=none;fillColor=none;align=center;verticalAlign=middle;whiteSpace=wrap;rounded=0;" vertex="1" parent="MW5D7cG7npsvMn2pO1Nx-1">
          <mxGeometry x="-100" y="230" width="100" height="20" as="geometry" />
        </mxCell>
        <mxCell id="MW5D7cG7npsvMn2pO1Nx-15" value="" style="endArrow=none;dashed=1;html=1;dashPattern=1 3;strokeWidth=2;" edge="1" parent="MW5D7cG7npsvMn2pO1Nx-1">
          <mxGeometry width="50" height="50" relative="1" as="geometry">
            <mxPoint x="20" y="1006" as="sourcePoint" />
            <mxPoint x="20" y="-1" as="targetPoint" />
          </mxGeometry>
        </mxCell>
        <mxCell id="MW5D7cG7npsvMn2pO1Nx-16" value="" style="endArrow=classic;html=1;entryX=0;entryY=0.5;entryDx=0;entryDy=0;exitX=1.05;exitY=0.4;exitDx=0;exitDy=0;exitPerimeter=0;" edge="1" parent="MW5D7cG7npsvMn2pO1Nx-1" source="MW5D7cG7npsvMn2pO1Nx-2" target="MW5D7cG7npsvMn2pO1Nx-3">
          <mxGeometry width="50" height="50" relative="1" as="geometry">
            <mxPoint x="130" y="310" as="sourcePoint" />
            <mxPoint x="180" y="260" as="targetPoint" />
          </mxGeometry>
        </mxCell>
        <mxCell id="MW5D7cG7npsvMn2pO1Nx-17" value="" style="endArrow=classic;html=1;" edge="1" parent="MW5D7cG7npsvMn2pO1Nx-1" source="MW5D7cG7npsvMn2pO1Nx-3" target="MW5D7cG7npsvMn2pO1Nx-10">
          <mxGeometry width="50" height="50" relative="1" as="geometry">
            <mxPoint x="280" y="350" as="sourcePoint" />
            <mxPoint x="330" y="300" as="targetPoint" />
            <Array as="points">
              <mxPoint x="330" y="350" />
            </Array>
          </mxGeometry>
        </mxCell>
        <mxCell id="MW5D7cG7npsvMn2pO1Nx-18" value="" style="endArrow=classic;html=1;entryX=0.5;entryY=1;entryDx=0;entryDy=0;" edge="1" parent="MW5D7cG7npsvMn2pO1Nx-1" target="MW5D7cG7npsvMn2pO1Nx-3">
          <mxGeometry width="50" height="50" relative="1" as="geometry">
            <mxPoint x="330" y="450" as="sourcePoint" />
            <mxPoint x="250" y="360" as="targetPoint" />
            <Array as="points">
              <mxPoint x="280" y="400" />
              <mxPoint x="260" y="360" />
            </Array>
          </mxGeometry>
        </mxCell>
        <mxCell id="MW5D7cG7npsvMn2pO1Nx-19" value="" style="endArrow=classic;html=1;entryX=0;entryY=0.5;entryDx=0;entryDy=0;exitX=1;exitY=0.5;exitDx=0;exitDy=0;" edge="1" parent="MW5D7cG7npsvMn2pO1Nx-1" source="MW5D7cG7npsvMn2pO1Nx-3" target="MW5D7cG7npsvMn2pO1Nx-4">
          <mxGeometry width="50" height="50" relative="1" as="geometry">
            <mxPoint x="310" y="310" as="sourcePoint" />
            <mxPoint x="360" y="260" as="targetPoint" />
          </mxGeometry>
        </mxCell>
        <mxCell id="MW5D7cG7npsvMn2pO1Nx-20" value="" style="endArrow=classic;html=1;entryX=1;entryY=0;entryDx=0;entryDy=0;exitX=0.675;exitY=0.988;exitDx=0;exitDy=0;exitPerimeter=0;" edge="1" parent="MW5D7cG7npsvMn2pO1Nx-1" source="MW5D7cG7npsvMn2pO1Nx-4" target="MW5D7cG7npsvMn2pO1Nx-10">
          <mxGeometry width="50" height="50" relative="1" as="geometry">
            <mxPoint x="440" y="380" as="sourcePoint" />
            <mxPoint x="490" y="330" as="targetPoint" />
          </mxGeometry>
        </mxCell>
        <mxCell id="MW5D7cG7npsvMn2pO1Nx-23" value="" style="endArrow=classic;startArrow=classic;html=1;entryX=0;entryY=0;entryDx=0;entryDy=0;exitX=1;exitY=0.5;exitDx=0;exitDy=0;" edge="1" parent="MW5D7cG7npsvMn2pO1Nx-1" source="MW5D7cG7npsvMn2pO1Nx-5" target="MW5D7cG7npsvMn2pO1Nx-7">
          <mxGeometry width="50" height="50" relative="1" as="geometry">
            <mxPoint x="720" y="310" as="sourcePoint" />
            <mxPoint x="770" y="260" as="targetPoint" />
          </mxGeometry>
        </mxCell>
        <mxCell id="MW5D7cG7npsvMn2pO1Nx-24" value="" style="endArrow=classic;startArrow=classic;html=1;exitX=1;exitY=0.25;exitDx=0;exitDy=0;entryX=0;entryY=0.5;entryDx=0;entryDy=0;" edge="1" parent="MW5D7cG7npsvMn2pO1Nx-1" source="MW5D7cG7npsvMn2pO1Nx-4" target="MW5D7cG7npsvMn2pO1Nx-5">
          <mxGeometry width="50" height="50" relative="1" as="geometry">
            <mxPoint x="470" y="300" as="sourcePoint" />
            <mxPoint x="520" y="250" as="targetPoint" />
          </mxGeometry>
        </mxCell>
        <mxCell id="MW5D7cG7npsvMn2pO1Nx-26" value="" style="endArrow=classic;startArrow=classic;html=1;entryX=0.1;entryY=0.79;entryDx=0;entryDy=0;entryPerimeter=0;exitX=1;exitY=0.5;exitDx=0;exitDy=0;" edge="1" parent="MW5D7cG7npsvMn2pO1Nx-1" source="MW5D7cG7npsvMn2pO1Nx-6" target="MW5D7cG7npsvMn2pO1Nx-7">
          <mxGeometry width="50" height="50" relative="1" as="geometry">
            <mxPoint x="760" y="440" as="sourcePoint" />
            <mxPoint x="810" y="390" as="targetPoint" />
          </mxGeometry>
        </mxCell>
        <mxCell id="MW5D7cG7npsvMn2pO1Nx-27" value="" style="endArrow=classic;startArrow=classic;html=1;exitX=1;exitY=0.5;exitDx=0;exitDy=0;" edge="1" parent="MW5D7cG7npsvMn2pO1Nx-1" source="MW5D7cG7npsvMn2pO1Nx-4" target="MW5D7cG7npsvMn2pO1Nx-6">
          <mxGeometry width="50" height="50" relative="1" as="geometry">
            <mxPoint x="520" y="410" as="sourcePoint" />
            <mxPoint x="570" y="360" as="targetPoint" />
          </mxGeometry>
        </mxCell>
        <mxCell id="MW5D7cG7npsvMn2pO1Nx-28" value="" style="endArrow=none;dashed=1;html=1;dashPattern=1 3;strokeWidth=2;" edge="1" parent="MW5D7cG7npsvMn2pO1Nx-1">
          <mxGeometry width="50" height="50" relative="1" as="geometry">
            <mxPoint x="820" y="998" as="sourcePoint" />
            <mxPoint x="820" y="-20" as="targetPoint" />
          </mxGeometry>
        </mxCell>
        <mxCell id="MW5D7cG7npsvMn2pO1Nx-29" value="" style="curved=1;endArrow=classic;html=1;entryX=0.667;entryY=0;entryDx=0;entryDy=0;entryPerimeter=0;exitX=0;exitY=0;exitDx=0;exitDy=0;" edge="1" parent="MW5D7cG7npsvMn2pO1Nx-1" source="MW5D7cG7npsvMn2pO1Nx-8" target="MW5D7cG7npsvMn2pO1Nx-3">
          <mxGeometry width="50" height="50" relative="1" as="geometry">
            <mxPoint x="300" y="180" as="sourcePoint" />
            <mxPoint x="350" y="130" as="targetPoint" />
            <Array as="points">
              <mxPoint x="350" y="180" />
            </Array>
          </mxGeometry>
        </mxCell>
        <mxCell id="MW5D7cG7npsvMn2pO1Nx-30" value="" style="endArrow=classic;html=1;entryX=0.375;entryY=0.013;entryDx=0;entryDy=0;entryPerimeter=0;exitX=0.5;exitY=1;exitDx=0;exitDy=0;" edge="1" parent="MW5D7cG7npsvMn2pO1Nx-1" source="MW5D7cG7npsvMn2pO1Nx-9" target="MW5D7cG7npsvMn2pO1Nx-3">
          <mxGeometry width="50" height="50" relative="1" as="geometry">
            <mxPoint x="230" y="140" as="sourcePoint" />
            <mxPoint x="280" y="90" as="targetPoint" />
          </mxGeometry>
        </mxCell>
        <mxCell id="MW5D7cG7npsvMn2pO1Nx-31" value="" style="curved=1;endArrow=classic;html=1;exitX=0.042;exitY=0.7;exitDx=0;exitDy=0;exitPerimeter=0;" edge="1" parent="MW5D7cG7npsvMn2pO1Nx-1" source="MW5D7cG7npsvMn2pO1Nx-5">
          <mxGeometry width="50" height="50" relative="1" as="geometry">
            <mxPoint x="490" y="560" as="sourcePoint" />
            <mxPoint x="-80" y="570" as="targetPoint" />
            <Array as="points">
              <mxPoint x="530" y="460" />
              <mxPoint x="490" y="510" />
              <mxPoint x="340" y="550" />
            </Array>
          </mxGeometry>
        </mxCell>
        <mxCell id="MW5D7cG7npsvMn2pO1Nx-32" value="" style="curved=1;endArrow=classic;html=1;exitX=0.042;exitY=0.7;exitDx=0;exitDy=0;exitPerimeter=0;" edge="1" parent="MW5D7cG7npsvMn2pO1Nx-1">
          <mxGeometry width="50" height="50" relative="1" as="geometry">
            <mxPoint x="645.04" y="460" as="sourcePoint" />
            <mxPoint x="-30" y="734" as="targetPoint" />
            <Array as="points">
              <mxPoint x="580" y="624" />
              <mxPoint x="540" y="674" />
              <mxPoint x="390" y="714" />
            </Array>
          </mxGeometry>
        </mxCell>
        <mxCell id="MW5D7cG7npsvMn2pO1Nx-33" value="To callback" style="text;html=1;strokeColor=none;fillColor=none;align=center;verticalAlign=middle;whiteSpace=wrap;rounded=0;" vertex="1" parent="MW5D7cG7npsvMn2pO1Nx-1">
          <mxGeometry x="20" y="530" width="100" height="20" as="geometry" />
        </mxCell>
        <mxCell id="MW5D7cG7npsvMn2pO1Nx-34" value="To callback" style="text;html=1;strokeColor=none;fillColor=none;align=center;verticalAlign=middle;whiteSpace=wrap;rounded=0;" vertex="1" parent="MW5D7cG7npsvMn2pO1Nx-1">
          <mxGeometry x="30" y="700" width="100" height="20" as="geometry" />
        </mxCell>
      </root>
    </mxGraphModel>
  </diagram>
</mxfile>
